# xmcd
#
# Track frame offsets:
#	150
#	20306
#	27923
#	44000
#	66989
#	78451
#	84881
#	98632
#	110331
#	133883
#	148996
#	167403
#
# Disc length: 2419 seconds
#
# Revision: 1
# Processed by: cddbd v1.5.1PL0 Copyright (c) Steve Scherf et al.
# Submitted via: CDex 1.50Beta5
#
DISCID=9c09710c
DTITLE=さまざまなアーティスト - CD ONE
DYEAR=1900
DGENRE=
TTITLE0=The Zillions 'Raincoat Girlz'
TTITLE1=Rhodes 'The New'
TTITLE2=British Sea Power 'Childhood Memories'
TTITLE3=RLF 'Who's Afraid Of The Big Bad RLF'
TTITLE4=Todd 'Solid Gold Death Mask'
TTITLE5=The Futureheads 'Ticket'
TTITLE6=Thread 'Do What You Do'
TTITLE7=The Beatings 'What You Say'
TTITLE8=The Boggs 'Brighter Days'
TTITLE9=Pink Grease 'Working All Day'
TTITLE10=V-Twin 'Swiss Air'
TTITLE11=Young heart Attacks 'Tommy Shots'
EXTD=
EXTT0=
EXTT1=
EXTT2=
EXTT3=
EXTT4=
EXTT5=
EXTT6=
EXTT7=
EXTT8=
EXTT9=
EXTT10=
EXTT11=
PLAYORDER=
